<svg version="1.1" xmlns="http://www.w3.org/2000/svg" viewBox="0 0 1027.5250244140625 483.5999755859375" width="1027.5250244140625" height="483.5999755859375">
  <!-- svg-source:excalidraw -->
  
  <defs>
    <style class="style-fonts">
      @font-face {
        font-family: "Virgil";
        src: url("https://excalidraw.com/Virgil.woff2");
      }
      @font-face {
        font-family: "Cascadia";
        src: url("https://excalidraw.com/Cascadia.woff2");
      }
      @font-face {
        font-family: "Assistant";
        src: url("https://excalidraw.com/Assistant-Regular.woff2");
      }
    </style>
    
  </defs>
  <rect x="0" y="0" width="1027.5250244140625" height="483.5999755859375" fill="#ffffff"></rect><g transform="translate(10 10) rotate(0 196.875 16.800000000000182)"><text x="0" y="0" font-family="Cascadia, Segoe UI Emoji" font-size="28px" fill="#1e1e1e" text-anchor="start" style="white-space: pre;" direction="ltr" dominant-baseline="text-before-edge">- Sliding window counter</text></g><g transform="translate(38.8125 53.80000000000018) rotate(0 468.75 12)"><text x="0" y="0" font-family="Cascadia, Segoe UI Emoji" font-size="20px" fill="#1e1e1e" text-anchor="start" style="white-space: pre;" direction="ltr" dominant-baseline="text-before-edge">. hybrid approach that combines `Fixed window counter` with `Sliding window log`</text></g><g transform="translate(40.3125 88.80000000000018) rotate(0 445.3125 12)"><text x="0" y="0" font-family="Cascadia, Segoe UI Emoji" font-size="20px" fill="#1e1e1e" text-anchor="start" style="white-space: pre;" direction="ltr" dominant-baseline="text-before-edge">. not memory heavy as it stores only the current window and the previous one</text></g><g stroke-linecap="round"><g transform="translate(253.14311392086074 442.04997558593914) rotate(0 -0.9191879012341815 -103.5)"><path d="M0 0 C0.68 -59.92, -0.06 -124.33, -1.84 -207 M0 0 C-2.26 -42.25, -3 -82.41, -1.84 -207" stroke="#1e1e1e" stroke-width="1" fill="none"></path></g><g transform="translate(253.14311392086074 442.04997558593914) rotate(0 -0.9191879012341815 -103.5)"><path d="M8.26 -178.75 C5.16 -185.41, 1.94 -197.1, -1.84 -207 M8.26 -178.75 C5.52 -185.17, 3.08 -189.28, -1.84 -207" stroke="#1e1e1e" stroke-width="1" fill="none"></path></g><g transform="translate(253.14311392086074 442.04997558593914) rotate(0 -0.9191879012341815 -103.5)"><path d="M-12.27 -178.87 C-9.27 -185.44, -6.4 -197.1, -1.84 -207 M-12.27 -178.87 C-10.88 -185.38, -9.21 -189.47, -1.84 -207" stroke="#1e1e1e" stroke-width="1" fill="none"></path></g></g><mask></mask><g stroke-linecap="round"><g transform="translate(224.8703107097317 439.54997558593914) rotate(0 376.7961068521654 0)"><path d="M0 0 C206.87 -3.27, 413.39 -2.01, 753.59 0 M0 0 C268.71 2.73, 538.46 2.18, 753.59 0" stroke="#1e1e1e" stroke-width="1" fill="none"></path></g><g transform="translate(224.8703107097317 439.54997558593914) rotate(0 376.7961068521654 0)"><path d="M725.48 10.46 C732.66 5.79, 738.96 6.05, 753.59 0 M725.48 10.46 C734.66 7.7, 746.4 2.6, 753.59 0" stroke="#1e1e1e" stroke-width="1" fill="none"></path></g><g transform="translate(224.8703107097317 439.54997558593914) rotate(0 376.7961068521654 0)"><path d="M725.33 -10.06 C732.52 -9.09, 738.86 -3.19, 753.59 0 M725.33 -10.06 C734.47 -5.49, 746.26 -3.27, 753.59 0" stroke="#1e1e1e" stroke-width="1" fill="none"></path></g></g><mask></mask><g transform="translate(164.3047381183933 348.04997558593914) rotate(270 70.3125 9.599999999999909)"><text x="0" y="0" font-family="Cascadia, Segoe UI Emoji" font-size="16px" fill="#1e1e1e" text-anchor="start" style="white-space: pre;" direction="ltr" dominant-baseline="text-before-edge">num of requests</text></g><g stroke-linecap="round"><g transform="translate(251.3047381183933 439.04997558593914) rotate(0 0 8.5)"><path d="M0 0 C0.4 3.38, -0.77 6.8, 0 17 M0 0 C-0.25 6.67, 0.21 13.16, 0 17" stroke="#1e1e1e" stroke-width="1" fill="none"></path></g></g><mask></mask><g stroke-linecap="round" transform="translate(371.8201401183942 341.61468793576296) rotate(0 25.92579505300364 15.644876325088262)"><path d="M0 0 C0 0, 0 0, 0 0 M0 0 C0 0, 0 0, 0 0 M-0.26 6.4 C1.43 4.85, 3.89 2.38, 4.99 0.36 M-0.26 6.4 C1.19 5.1, 2.06 3.23, 4.99 0.36 M0.13 12.04 C3.57 9.89, 5.86 7.07, 10.63 -0.03 M0.13 12.04 C4.12 8.25, 7.04 2.85, 10.63 -0.03 M-0.13 18.44 C4.18 15.42, 5.62 9.72, 15.62 0.33 M-0.13 18.44 C2.94 14.8, 6.79 9.3, 15.62 0.33 M0.27 24.08 C4.05 17.54, 11.34 12.61, 21.26 -0.07 M0.27 24.08 C5.59 17.83, 12.47 11.03, 21.26 -0.07 M0 30.48 C11.01 19, 17.95 9.54, 26.25 0.29 M0 30.48 C8.38 21.7, 14.79 12.15, 26.25 0.29 M4.34 31.59 C14.26 22.32, 21.57 10.12, 31.89 -0.1 M4.34 31.59 C12.87 21.9, 19.19 13.46, 31.89 -0.1 M9.32 31.95 C15.62 22.66, 25.7 14.22, 36.88 0.26 M9.32 31.95 C19.9 19.97, 29.32 9.09, 36.88 0.26 M14.97 31.56 C25.52 19.42, 34.99 11.17, 42.52 -0.14 M14.97 31.56 C24.5 20.79, 32.5 9.76, 42.52 -0.14 M19.95 31.92 C29.83 22.9, 35.13 15.16, 47.51 0.22 M19.95 31.92 C29.26 21.01, 39.04 11.73, 47.51 0.22 M25.6 31.53 C36.82 20.31, 46.94 8.61, 52.49 0.58 M25.6 31.53 C33.91 22.12, 41.8 12.82, 52.49 0.58 M30.58 31.89 C39.19 20.18, 48.54 10.56, 52.23 6.98 M30.58 31.89 C36.93 23.08, 45.73 15.36, 52.23 6.98 M36.23 31.49 C41.86 27.58, 46.67 20.93, 52.63 12.62 M36.23 31.49 C38.84 26.61, 44.06 22.96, 52.63 12.62 M41.21 31.85 C43.41 28.64, 49.35 22.33, 52.37 19.02 M41.21 31.85 C43.22 29.13, 47.2 26.17, 52.37 19.02 M46.86 31.46 C47.87 28.53, 51.25 27.58, 52.76 24.66 M46.86 31.46 C49.13 29.61, 50.76 26.79, 52.76 24.66" stroke="#ffec99" stroke-width="0.5" fill="none"></path><path d="M0 0 C14.06 1.98, 25.89 0.8, 51.85 0 M0 0 C19.38 -1.14, 39.25 0.33, 51.85 0 M51.85 0 C50.26 9.18, 53.29 19.15, 51.85 31.29 M51.85 0 C51.18 12.32, 52.92 23.09, 51.85 31.29 M51.85 31.29 C36.81 29.38, 23.23 30.12, 0 31.29 M51.85 31.29 C40.25 31.22, 26.59 31.92, 0 31.29 M0 31.29 C-1.06 19.21, -0.46 11.17, 0 0 M0 31.29 C-0.38 24.09, 0.61 16.15, 0 0" stroke="#1e1e1e" stroke-width="1" fill="none"></path></g><g stroke-linecap="round" transform="translate(370.93194659895744 405.0102229357626) rotate(0 25.92579505300364 15.644876325088262)"><path d="M0 0 C0 0, 0 0, 0 0 M0 0 C0 0, 0 0, 0 0 M-0.26 6.4 C1.29 4.84, 4.21 2.26, 4.99 0.36 M-0.26 6.4 C1.44 3.79, 3.43 2.14, 4.99 0.36 M0.13 12.04 C4.35 7.3, 5.69 4.54, 10.63 -0.03 M0.13 12.04 C3.36 8.23, 7.82 4.01, 10.63 -0.03 M-0.13 18.44 C4.39 13.42, 9.58 4.35, 15.62 0.33 M-0.13 18.44 C4.47 12.5, 9.66 5.91, 15.62 0.33 M0.27 24.08 C4.73 19.86, 8.76 11.78, 21.26 -0.07 M0.27 24.08 C7.88 16.58, 14.9 8.41, 21.26 -0.07 M0 30.48 C6.75 21.14, 15.95 15.72, 26.25 0.29 M0 30.48 C8.72 22.16, 16.05 12.27, 26.25 0.29 M2.37 33.86 C12.74 19.71, 26.24 10.76, 31.89 -0.1 M2.37 33.86 C8.34 26.97, 13.74 19.39, 31.89 -0.1 M8.01 33.46 C17.72 22.04, 23.65 14.42, 36.88 0.26 M8.01 33.46 C16.12 24.31, 22.83 16.66, 36.88 0.26 M13 33.82 C20.39 24.27, 27.27 18.15, 42.52 -0.14 M13 33.82 C20.95 24.54, 29.49 16.94, 42.52 -0.14 M18.64 33.43 C28.13 21.34, 35.03 12.85, 47.51 0.22 M18.64 33.43 C26.16 25.95, 31.8 17.92, 47.51 0.22 M23.63 33.79 C32.18 22.12, 41.47 13.62, 52.49 0.58 M23.63 33.79 C32.7 25.33, 40.36 15.33, 52.49 0.58 M29.27 33.39 C34.77 29.17, 38.25 20.75, 52.23 6.98 M29.27 33.39 C34.43 27.46, 40.74 21.21, 52.23 6.98 M34.26 33.75 C39.45 26.21, 46.32 15.88, 52.63 12.62 M34.26 33.75 C38.28 29.89, 40.99 24.37, 52.63 12.62 M39.9 33.36 C43.48 27.4, 47.59 20.99, 52.37 19.02 M39.9 33.36 C44.07 28.03, 48.35 22.7, 52.37 19.02 M44.89 33.72 C46.79 30.85, 48.31 30.73, 52.76 24.66 M44.89 33.72 C47.98 30.67, 51.64 26.21, 52.76 24.66" stroke="#ffec99" stroke-width="0.5" fill="none"></path><path d="M0 0 C21.36 -2.07, 41.36 -0.52, 51.85 0 M0 0 C12.15 -0.35, 24.88 -1.21, 51.85 0 M51.85 0 C53.6 8.94, 52.8 14.74, 51.85 31.29 M51.85 0 C52.08 11.03, 51.92 22.22, 51.85 31.29 M51.85 31.29 C39.7 29.24, 29.28 32.52, 0 31.29 M51.85 31.29 C36.06 32.14, 20.2 31.25, 0 31.29 M0 31.29 C-1.39 24.92, -1.37 16.61, 0 0 M0 31.29 C-0.06 21.9, -0.69 12.01, 0 0" stroke="#1e1e1e" stroke-width="1" fill="none"></path></g><g stroke-linecap="round" transform="translate(370.93194659895744 373.7204702855861) rotate(0 25.92579505300364 15.644876325088262)"><path d="M0 0 C0 0, 0 0, 0 0 M0 0 C0 0, 0 0, 0 0 M-0.26 6.4 C2.11 4.72, 3.74 1.81, 4.99 0.36 M-0.26 6.4 C1.06 4.91, 3 3.12, 4.99 0.36 M0.13 12.04 C2.17 8.68, 7.56 3.24, 10.63 -0.03 M0.13 12.04 C2.68 9.78, 5.05 6.39, 10.63 -0.03 M-0.13 18.44 C2.68 12.13, 10.08 7.21, 15.62 0.33 M-0.13 18.44 C2.35 14.28, 5.76 11.87, 15.62 0.33 M0.27 24.08 C4.56 16.64, 12.32 12.14, 21.26 -0.07 M0.27 24.08 C7.76 16.52, 14.33 6.98, 21.26 -0.07 M0 30.48 C10.58 22.12, 17.44 10.06, 26.25 0.29 M0 30.48 C5.21 24.01, 12.14 16.33, 26.25 0.29 M4.34 31.59 C14.56 24.31, 18.76 12.9, 31.89 -0.1 M4.34 31.59 C9.32 24.25, 15.54 18.77, 31.89 -0.1 M9.32 31.95 C17.17 21.98, 26.46 9.99, 36.88 0.26 M9.32 31.95 C18.28 21.73, 27.32 10.9, 36.88 0.26 M14.97 31.56 C25.56 20.57, 34.69 6.76, 42.52 -0.14 M14.97 31.56 C21.07 26.26, 26.18 18.61, 42.52 -0.14 M19.95 31.92 C28.67 20.38, 38.82 10.12, 47.51 0.22 M19.95 31.92 C29.12 20.93, 39.79 9.48, 47.51 0.22 M25.6 31.53 C33.99 22.71, 41.31 13.3, 52.49 0.58 M25.6 31.53 C33.02 23.13, 38.84 15.23, 52.49 0.58 M30.58 31.89 C34.68 24.6, 39.29 22.04, 52.23 6.98 M30.58 31.89 C37.72 24.89, 44.3 17.53, 52.23 6.98 M36.23 31.49 C39.81 23.68, 44.96 21.02, 52.63 12.62 M36.23 31.49 C39.59 25.91, 44.76 22.56, 52.63 12.62 M41.21 31.85 C42.84 26.93, 47.89 25.99, 52.37 19.02 M41.21 31.85 C45.3 26.5, 48.48 23.35, 52.37 19.02 M46.86 31.46 C48.99 29.82, 51.51 26.95, 52.76 24.66 M46.86 31.46 C48.85 29.28, 50.35 28.14, 52.76 24.66" stroke="#ffec99" stroke-width="0.5" fill="none"></path><path d="M0 0 C18.48 0.11, 32.1 0.69, 51.85 0 M0 0 C20.53 -0.83, 38.78 0.68, 51.85 0 M51.85 0 C52.82 6.58, 53.16 18.22, 51.85 31.29 M51.85 0 C51.6 7.98, 50.94 16.69, 51.85 31.29 M51.85 31.29 C38.28 32.33, 26.41 29.73, 0 31.29 M51.85 31.29 C32.75 31.05, 11.52 31.35, 0 31.29 M0 31.29 C-1.19 19.7, 0.1 10.62, 0 0 M0 31.29 C-0.51 23.73, 0.73 17.54, 0 0" stroke="#1e1e1e" stroke-width="1" fill="none"></path></g><g stroke-linecap="round" transform="translate(427.93194659895744 405.0102229357626) rotate(0 25.92579505300364 15.644876325088262)"><path d="M0 0 C0 0, 0 0, 0 0 M0 0 C0 0, 0 0, 0 0 M-0.26 6.4 C0.17 4.57, 2.54 4.02, 4.99 0.36 M-0.26 6.4 C1.42 3.89, 3.61 2.23, 4.99 0.36 M0.13 12.04 C3.25 9.95, 5.61 7.59, 10.63 -0.03 M0.13 12.04 C3.07 8.69, 4.38 7.16, 10.63 -0.03 M-0.13 18.44 C4.5 11.76, 7.97 7.08, 15.62 0.33 M-0.13 18.44 C6.6 10.97, 11.38 5.23, 15.62 0.33 M0.27 24.08 C9.29 16.19, 16.9 6.28, 21.26 -0.07 M0.27 24.08 C5.48 18.3, 12.68 10.65, 21.26 -0.07 M0 30.48 C8.79 21.68, 14.6 16.2, 26.25 0.29 M0 30.48 C5.52 24.27, 13.62 15.01, 26.25 0.29 M4.34 31.59 C12.06 21.11, 18.67 13.15, 31.89 -0.1 M4.34 31.59 C11.9 21.08, 21.42 11.37, 31.89 -0.1 M9.32 31.95 C14.76 23.76, 23.11 15.57, 36.88 0.26 M9.32 31.95 C17.86 21.27, 28.23 9.89, 36.88 0.26 M14.97 31.56 C20.57 25.33, 29.81 17.19, 42.52 -0.14 M14.97 31.56 C21.33 22.25, 29.61 13.68, 42.52 -0.14 M19.95 31.92 C30.99 19.24, 40.77 9.33, 47.51 0.22 M19.95 31.92 C29.59 20.18, 40.81 7.89, 47.51 0.22 M25.6 31.53 C35.41 22.93, 42.24 10.76, 52.49 0.58 M25.6 31.53 C35.78 20.32, 43.73 9.43, 52.49 0.58 M30.58 31.89 C39.83 23.56, 48.44 14.15, 52.23 6.98 M30.58 31.89 C38.46 22.34, 44.98 13.48, 52.23 6.98 M36.23 31.49 C43.21 23.17, 46.99 18.34, 52.63 12.62 M36.23 31.49 C41.21 24.7, 45.91 19.87, 52.63 12.62 M41.21 31.85 C44.41 27.39, 47.55 21.1, 52.37 19.02 M41.21 31.85 C44.82 27.03, 50.39 22.59, 52.37 19.02 M46.86 31.46 C49.3 30.32, 49.65 28.18, 52.76 24.66 M46.86 31.46 C49.28 28.47, 51.2 26.3, 52.76 24.66" stroke="#ffec99" stroke-width="0.5" fill="none"></path><path d="M0 0 C16.13 1.79, 30.43 -0.88, 51.85 0 M0 0 C19.63 -0.03, 37.68 0.14, 51.85 0 M51.85 0 C51.63 11.88, 51.88 22.88, 51.85 31.29 M51.85 0 C50.8 11.86, 52.44 24.57, 51.85 31.29 M51.85 31.29 C40.01 32.88, 25.54 30.01, 0 31.29 M51.85 31.29 C37.49 30.21, 22.16 30.86, 0 31.29 M0 31.29 C-0.11 18.73, -1.5 9.57, 0 0 M0 31.29 C-0.39 23.58, -0.39 14.58, 0 0" stroke="#1e1e1e" stroke-width="1" fill="none"></path></g><g stroke-linecap="round" transform="translate(427.93194659895744 373.7204702855861) rotate(0 25.92579505300364 15.644876325088262)"><path d="M0 0 C0 0, 0 0, 0 0 M0 0 C0 0, 0 0, 0 0 M-0.26 6.4 C1.46 5.32, 2.6 3.91, 4.99 0.36 M-0.26 6.4 C1.73 4.5, 3.19 1.8, 4.99 0.36 M0.13 12.04 C3.09 10.2, 3.74 6.22, 10.63 -0.03 M0.13 12.04 C2.12 9.66, 4.72 5.82, 10.63 -0.03 M-0.13 18.44 C2.47 13.22, 8.56 9.66, 15.62 0.33 M-0.13 18.44 C3.75 13.85, 9.16 8.77, 15.62 0.33 M0.27 24.08 C9.47 14.76, 14.55 7.43, 21.26 -0.07 M0.27 24.08 C7.1 17.09, 12.01 9.26, 21.26 -0.07 M0 30.48 C9.49 21.71, 16.37 10.02, 26.25 0.29 M0 30.48 C8.17 21.2, 14.14 13.16, 26.25 0.29 M4.34 31.59 C10.63 22.3, 20.71 13.86, 31.89 -0.1 M4.34 31.59 C14.92 19.61, 24.33 8.73, 31.89 -0.1 M9.32 31.95 C19.88 19.81, 29.34 11.56, 36.88 0.26 M9.32 31.95 C18.86 21.18, 26.86 10.15, 36.88 0.26 M14.97 31.56 C24.84 22.54, 30.14 14.8, 42.52 -0.14 M14.97 31.56 C24.27 20.65, 34.06 11.37, 42.52 -0.14 M19.95 31.92 C31.42 20.42, 41.78 8.44, 47.51 0.22 M19.95 31.92 C28.47 22.29, 36.55 12.76, 47.51 0.22 M25.6 31.53 C36.24 17.38, 47.69 5.37, 52.49 0.58 M25.6 31.53 C33.65 20.73, 44.2 11, 52.49 0.58 M30.58 31.89 C37.71 26.2, 44.03 17.81, 52.23 6.98 M30.58 31.89 C34.3 25.76, 40.65 20.81, 52.23 6.98 M36.23 31.49 C39.95 26.41, 48.09 17.66, 52.63 12.62 M36.23 31.49 C39.41 27.39, 44.9 22.98, 52.63 12.62 M41.21 31.85 C43.14 26.32, 49.51 24.54, 52.37 19.02 M41.21 31.85 C45.52 28.36, 48.59 23.05, 52.37 19.02 M46.86 31.46 C47.98 29.96, 51.11 27.87, 52.76 24.66 M46.86 31.46 C48.04 29.97, 49.81 28.51, 52.76 24.66" stroke="#ffec99" stroke-width="0.5" fill="none"></path><path d="M0 0 C14.9 -1.27, 34.45 -1.27, 51.85 0 M0 0 C18.73 0.35, 39.99 -0.67, 51.85 0 M51.85 0 C52.02 7.4, 53.65 17.32, 51.85 31.29 M51.85 0 C52.33 7.57, 51.02 15.73, 51.85 31.29 M51.85 31.29 C33.37 30.17, 16.41 32.72, 0 31.29 M51.85 31.29 C39.76 30.86, 28.91 30.05, 0 31.29 M0 31.29 C-1.71 22.95, -0.75 11.63, 0 0 M0 31.29 C-0.25 20.21, -0.01 9.84, 0 0" stroke="#1e1e1e" stroke-width="1" fill="none"></path></g><g stroke-linecap="round" transform="translate(485.93194659895744 406.0102229357626) rotate(0 25.92579505300364 15.644876325088262)"><path d="M0 0 C0 0, 0 0, 0 0 M0 0 C0 0, 0 0, 0 0 M-0.26 6.4 C0.76 4.72, 3.45 2, 4.99 0.36 M-0.26 6.4 C1.01 5.27, 2.2 3.57, 4.99 0.36 M0.13 12.04 C1.74 7.73, 7.03 4.51, 10.63 -0.03 M0.13 12.04 C1.68 9.2, 3.98 7.77, 10.63 -0.03 M-0.13 18.44 C2.77 12.64, 9.12 9.74, 15.62 0.33 M-0.13 18.44 C5.58 13.02, 10.33 5.57, 15.62 0.33 M0.27 24.08 C9.11 17.66, 14.26 7.57, 21.26 -0.07 M0.27 24.08 C4.34 18.99, 10.11 12.65, 21.26 -0.07 M0 30.48 C9.83 23.62, 13.65 12.66, 26.25 0.29 M0 30.48 C4.71 23.44, 10.68 18.27, 26.25 0.29 M2.37 33.86 C10.85 23.15, 20.79 10.41, 31.89 -0.1 M2.37 33.86 C11.99 22.87, 21.69 11.27, 31.89 -0.1 M8.01 33.46 C19.09 21.93, 28.71 7.56, 36.88 0.26 M8.01 33.46 C14.38 27.87, 19.76 19.92, 36.88 0.26 M13 33.82 C22.43 21.47, 33.3 10.39, 42.52 -0.14 M13 33.82 C22.86 22, 34.25 9.72, 42.52 -0.14 M18.64 33.43 C27.63 23.96, 35.53 13.87, 47.51 0.22 M18.64 33.43 C26.57 24.42, 32.91 15.91, 47.51 0.22 M23.63 33.79 C29.37 24.54, 35.64 20.07, 52.49 0.58 M23.63 33.79 C32.92 24.29, 41.64 14.47, 52.49 0.58 M29.27 33.39 C35.03 23.14, 42.28 18.05, 52.23 6.98 M29.27 33.39 C34.18 25.98, 40.93 20.81, 52.23 6.98 M34.26 33.75 C37.6 26.38, 44.93 23.67, 52.63 12.62 M34.26 33.75 C40.97 25.29, 46.61 19.39, 52.63 12.62 M39.9 33.36 C44.4 29.91, 49.72 23.85, 52.37 19.02 M39.9 33.36 C44.11 28.77, 47.27 26.35, 52.37 19.02 M44.89 33.72 C46.79 29.8, 50.89 27.43, 52.76 24.66 M44.89 33.72 C48.15 30.21, 50.66 26.74, 52.76 24.66" stroke="#ffec99" stroke-width="0.5" fill="none"></path><path d="M0 0 C14.27 -1.79, 28.15 1.68, 51.85 0 M0 0 C12.85 0.11, 25.27 0.93, 51.85 0 M51.85 0 C50.93 9.25, 51.9 14.39, 51.85 31.29 M51.85 0 C52.67 11.49, 51.23 23.73, 51.85 31.29 M51.85 31.29 C32.12 30.93, 15.09 32.91, 0 31.29 M51.85 31.29 C40.33 30.3, 30.51 30.79, 0 31.29 M0 31.29 C0.7 20.98, -1.06 11.91, 0 0 M0 31.29 C-0.16 22.22, -0.1 14.62, 0 0" stroke="#1e1e1e" stroke-width="1" fill="none"></path></g><g stroke-linecap="round" transform="translate(485.93194659895744 374.7204702855861) rotate(0 25.92579505300364 15.644876325088262)"><path d="M0 0 C0 0, 0 0, 0 0 M0 0 C0 0, 0 0, 0 0 M-0.26 6.4 C1.49 4.3, 1.68 2.82, 4.99 0.36 M-0.26 6.4 C1.74 4.02, 3.23 2.04, 4.99 0.36 M0.13 12.04 C4.84 7.21, 6.69 1.72, 10.63 -0.03 M0.13 12.04 C2.89 9.09, 6.26 4.7, 10.63 -0.03 M-0.13 18.44 C6.72 12.79, 12.66 6.08, 15.62 0.33 M-0.13 18.44 C5.56 11.07, 12.28 4.1, 15.62 0.33 M0.27 24.08 C5.25 17.35, 8.4 13.27, 21.26 -0.07 M0.27 24.08 C9.24 13.99, 16.7 4.83, 21.26 -0.07 M0 30.48 C3.42 23.5, 9.09 17.1, 26.25 0.29 M0 30.48 C7.31 22.53, 14.91 14.85, 26.25 0.29 M4.34 31.59 C9.54 23.53, 17.07 18.95, 31.89 -0.1 M4.34 31.59 C10.75 23.88, 19.07 15.73, 31.89 -0.1 M9.32 31.95 C15.05 23.01, 20.22 16.66, 36.88 0.26 M9.32 31.95 C16.09 23.49, 23.58 16.17, 36.88 0.26 M14.97 31.56 C19.76 26.06, 27.96 19.77, 42.52 -0.14 M14.97 31.56 C25.48 20.33, 35.65 7.74, 42.52 -0.14 M19.95 31.92 C25.76 24.78, 31.74 19.47, 47.51 0.22 M19.95 31.92 C29.32 20.41, 39.85 8.34, 47.51 0.22 M25.6 31.53 C34.37 22.17, 45.36 8.82, 52.49 0.58 M25.6 31.53 C35.36 21.39, 43.92 9.47, 52.49 0.58 M30.58 31.89 C35.94 25.6, 43.83 16.74, 52.23 6.98 M30.58 31.89 C38.53 24.14, 44.56 15.23, 52.23 6.98 M36.23 31.49 C41.54 27.72, 46.34 21.64, 52.63 12.62 M36.23 31.49 C39.5 27.63, 44.99 22.14, 52.63 12.62 M41.21 31.85 C45.2 28.72, 45.49 26.16, 52.37 19.02 M41.21 31.85 C45.92 27.78, 50.11 21.62, 52.37 19.02 M46.86 31.46 C49.19 29.31, 51.59 27.54, 52.76 24.66 M46.86 31.46 C48.63 29.2, 50.56 26.84, 52.76 24.66" stroke="#ffec99" stroke-width="0.5" fill="none"></path><path d="M0 0 C18.65 2.3, 34.2 0.28, 51.85 0 M0 0 C14.47 0.86, 30.21 -0.66, 51.85 0 M51.85 0 C51.98 5.51, 53.37 13.99, 51.85 31.29 M51.85 0 C51.33 10.56, 52.6 20.72, 51.85 31.29 M51.85 31.29 C34.37 32.59, 15.4 31.47, 0 31.29 M51.85 31.29 C38.07 30.43, 22.79 31.22, 0 31.29 M0 31.29 C-1.07 22.81, -0.59 14.22, 0 0 M0 31.29 C-0.12 21.02, 0.66 9.62, 0 0" stroke="#1e1e1e" stroke-width="1" fill="none"></path></g><g stroke-linecap="round" transform="translate(486.82593953182004 342.98372116897826) rotate(0 25.92579505300364 15.644876325088262)"><path d="M0 0 C0 0, 0 0, 0 0 M0 0 C0 0, 0 0, 0 0 M-0.26 6.4 C0.68 3.94, 3.45 2.78, 4.99 0.36 M-0.26 6.4 C1.43 4.16, 3.51 2.03, 4.99 0.36 M0.13 12.04 C1.25 7.76, 5.54 4.45, 10.63 -0.03 M0.13 12.04 C2.57 8.79, 6.06 5.37, 10.63 -0.03 M-0.13 18.44 C4.76 14.8, 9.62 9.79, 15.62 0.33 M-0.13 18.44 C6.48 11.11, 11.87 5, 15.62 0.33 M0.27 24.08 C6.35 16.09, 17.44 5.52, 21.26 -0.07 M0.27 24.08 C7.25 15.59, 13.66 8.63, 21.26 -0.07 M0 30.48 C8.66 18.55, 20.31 5.52, 26.25 0.29 M0 30.48 C5.8 24.86, 10.09 17.37, 26.25 0.29 M2.37 33.86 C12.55 24.34, 20.03 12.24, 31.89 -0.1 M2.37 33.86 C13.46 22.31, 22.26 10.57, 31.89 -0.1 M8.01 33.46 C15.7 22.35, 26.19 12.7, 36.88 0.26 M8.01 33.46 C20.09 20.7, 29.97 6.61, 36.88 0.26 M13 33.82 C23 25.28, 31.72 12.79, 42.52 -0.14 M13 33.82 C23.92 20.95, 34.16 8.55, 42.52 -0.14 M18.64 33.43 C27.06 25.01, 38.26 13.76, 47.51 0.22 M18.64 33.43 C27.15 23.37, 37.42 12.37, 47.51 0.22 M23.63 33.79 C30.41 25.65, 37.92 19.59, 52.49 0.58 M23.63 33.79 C33.65 21.18, 43.8 9.51, 52.49 0.58 M29.27 33.39 C33.28 28.54, 39.95 20.88, 52.23 6.98 M29.27 33.39 C33.36 27.48, 37.99 21.87, 52.23 6.98 M34.26 33.75 C39.26 29.25, 41.04 24.93, 52.63 12.62 M34.26 33.75 C38.61 29.41, 41.45 24.85, 52.63 12.62 M39.9 33.36 C43.68 28.14, 50.27 24.78, 52.37 19.02 M39.9 33.36 C43.26 29.35, 46.03 25.69, 52.37 19.02 M44.89 33.72 C47.8 32.24, 49.13 29.9, 52.76 24.66 M44.89 33.72 C46.93 30.99, 49.8 28.25, 52.76 24.66" stroke="#ffec99" stroke-width="0.5" fill="none"></path><path d="M0 0 C10.48 -0.62, 22.79 -0.95, 51.85 0 M0 0 C15.5 -1.09, 31.16 -0.84, 51.85 0 M51.85 0 C53.53 12.51, 52.74 24.87, 51.85 31.29 M51.85 0 C52.15 7.22, 51.97 15.18, 51.85 31.29 M51.85 31.29 C35.95 31.98, 23.13 30.74, 0 31.29 M51.85 31.29 C40.95 31.47, 29.57 31.49, 0 31.29 M0 31.29 C-0.31 22.46, 1.15 14.33, 0 0 M0 31.29 C0.65 23.38, -0.37 15.86, 0 0" stroke="#1e1e1e" stroke-width="1" fill="none"></path></g><g transform="translate(248.7125244140625 443.3999755859377) rotate(0 18.75 9.599999999999909)"><text x="18.75" y="0" font-family="Cascadia, Segoe UI Emoji" font-size="16px" fill="#1e1e1e" text-anchor="middle" style="white-space: pre;" direction="ltr" dominant-baseline="text-before-edge">time</text></g><g stroke-linecap="round" transform="translate(305.4625244140625 284.3999755859377) rotate(0 88.5 77.5)"><path d="M0 0 C36.2 0, 72.41 0, 177 0 M0 0 C59.86 0, 119.71 0, 177 0 M177 0 C177 36.46, 177 72.92, 177 155 M177 0 C177 58.52, 177 117.03, 177 155 M177 155 C106.75 155, 36.49 155, 0 155 M177 155 C114.05 155, 51.1 155, 0 155 M0 155 C0 117.72, 0 80.44, 0 0 M0 155 C0 96.02, 0 37.03, 0 0" stroke="#1e1e1e" stroke-width="1" fill="none"></path></g><g stroke-linecap="round" transform="translate(485.9625244140625 284.8999755859377) rotate(0 88.5 77.5)"><path d="M0 0 C39.15 0, 78.3 0, 177 0 M0 0 C62.58 0, 125.15 0, 177 0 M177 0 C177 33.5, 177 66.99, 177 155 M177 0 C177 40.51, 177 81.01, 177 155 M177 155 C123.59 155, 70.18 155, 0 155 M177 155 C117.74 155, 58.48 155, 0 155 M0 155 C0 93.8, 0 32.59, 0 0 M0 155 C0 121.99, 0 88.98, 0 0" stroke="#1e1e1e" stroke-width="1" fill="none"></path></g><g stroke-linecap="round"><g transform="translate(305.4625244140625 442.3999755859377) rotate(0 88 6)"><path d="M0 0 C0 3.84, 0 7.68, 0 12 M0 0 C0 3.66, 0 7.31, 0 12 M0 12 C51.98 12, 103.96 12, 176 12 M0 12 C45.87 12, 91.73 12, 176 12 M176 12 C175.66 8.62, 175.32 5.25, 175 2 M176 12 C175.67 8.72, 175.34 5.44, 175 2" stroke="#1e1e1e" stroke-width="1" fill="none"></path></g></g><mask></mask><g stroke-linecap="round"><g transform="translate(485.4625244140625 442.3999755859377) rotate(0 88 6)"><path d="M0 0 C0 3.97, 0 7.95, 0 12 M0 0 C0 3.18, 0 6.37, 0 12 M0 12 C54.31 12, 108.61 12, 176 12 M0 12 C38.8 12, 77.6 12, 176 12 M176 12 C175.62 8.24, 175.25 4.49, 175 2 M176 12 C175.68 8.76, 175.35 5.52, 175 2" stroke="#1e1e1e" stroke-width="1" fill="none"></path></g></g><mask></mask><g transform="translate(330.5250244140625 454.3999755859377) rotate(0 60.9375 9.599999999999909)"><text x="60.9375" y="0" font-family="Cascadia, Segoe UI Emoji" font-size="16px" fill="#1e1e1e" text-anchor="middle" style="white-space: pre;" direction="ltr" dominant-baseline="text-before-edge">previous hour</text></g><g transform="translate(505.2125244140625 454.3999755859377) rotate(0 56.25 9.599999999999909)"><text x="56.25" y="0" font-family="Cascadia, Segoe UI Emoji" font-size="16px" fill="#1e1e1e" text-anchor="middle" style="white-space: pre;" direction="ltr" dominant-baseline="text-before-edge">current hour</text></g><g stroke-linecap="round" transform="translate(366.4625244140625 247.39997558593768) rotate(0 92 96.5)"><path d="M0 0 C0 0, 0 0, 0 0 M0 0 C0 0, 0 0, 0 0 M-0.26 6.4 C1.3 4.61, 2.85 2.82, 4.99 0.36 M-0.26 6.4 C1.3 4.6, 2.86 2.81, 4.99 0.36 M0.13 12.04 C2.25 9.6, 4.38 7.16, 10.63 -0.03 M0.13 12.04 C3.34 8.35, 6.54 4.67, 10.63 -0.03 M-0.13 18.44 C5.75 11.67, 11.64 4.91, 15.62 0.33 M-0.13 18.44 C5.59 11.86, 11.31 5.28, 15.62 0.33 M0.27 24.08 C5.29 18.3, 10.31 12.52, 21.26 -0.07 M0.27 24.08 C5.8 17.72, 11.33 11.35, 21.26 -0.07 M0 30.48 C7.03 22.4, 14.05 14.32, 26.25 0.29 M0 30.48 C7.06 22.36, 14.12 14.24, 26.25 0.29 M-0.26 36.88 C12.54 22.15, 25.34 7.43, 31.89 -0.1 M-0.26 36.88 C11.96 22.82, 24.18 8.77, 31.89 -0.1 M0.14 42.52 C10.17 30.98, 20.2 19.45, 36.88 0.26 M0.14 42.52 C7.63 33.9, 15.13 25.28, 36.88 0.26 M-0.12 48.92 C11.3 35.77, 22.73 22.63, 42.52 -0.14 M-0.12 48.92 C9.43 37.93, 18.98 26.94, 42.52 -0.14 M0.27 54.56 C15.58 36.95, 30.89 19.34, 47.51 0.22 M0.27 54.56 C12.9 40.04, 25.52 25.52, 47.51 0.22 M0.01 60.96 C20.13 37.81, 40.26 14.66, 53.15 -0.17 M0.01 60.96 C19.89 38.08, 39.78 15.21, 53.15 -0.17 M-0.25 67.36 C22.89 40.73, 46.04 14.11, 58.14 0.19 M-0.25 67.36 C15.34 49.42, 30.93 31.48, 58.14 0.19 M0.14 73 C12.92 58.3, 25.7 43.6, 63.78 -0.21 M0.14 73 C14.06 56.99, 27.97 40.99, 63.78 -0.21 M-0.12 79.4 C20.93 55.18, 41.99 30.96, 68.77 0.15 M-0.12 79.4 C22 53.95, 44.13 28.5, 68.77 0.15 M0.28 85.04 C25.9 55.57, 51.52 26.09, 74.41 -0.24 M0.28 85.04 C26.58 54.79, 52.88 24.53, 74.41 -0.24 M0.01 91.44 C24.49 63.29, 48.96 35.13, 79.4 0.12 M0.01 91.44 C20.39 68, 40.76 44.57, 79.4 0.12 M-0.25 97.84 C30.87 62.04, 61.98 26.25, 85.04 -0.28 M-0.25 97.84 C32.96 59.64, 66.16 21.44, 85.04 -0.28 M0.15 103.48 C27.25 72.3, 54.35 41.13, 90.03 0.08 M0.15 103.48 C19.02 81.77, 37.89 60.06, 90.03 0.08 M-0.11 109.88 C33.5 71.21, 67.11 32.54, 95.67 -0.31 M-0.11 109.88 C32.31 72.58, 64.74 35.27, 95.67 -0.31 M0.28 115.52 C22.67 89.76, 45.07 64, 100.66 0.05 M0.28 115.52 C23.07 89.31, 45.85 63.1, 100.66 0.05 M0.02 121.92 C35.83 80.72, 71.64 39.53, 106.3 -0.34 M0.02 121.92 C24.24 94.06, 48.45 66.2, 106.3 -0.34 M-0.24 128.32 C27.79 96.07, 55.82 63.82, 111.29 0.02 M-0.24 128.32 C29.09 94.58, 58.42 60.84, 111.29 0.02 M0.15 133.96 C34.59 94.35, 69.02 54.73, 116.27 0.38 M0.15 133.96 C34.09 94.92, 68.03 55.88, 116.27 0.38 M-0.11 140.36 C24.94 111.54, 49.99 82.73, 121.92 -0.02 M-0.11 140.36 C46.57 86.66, 93.24 32.97, 121.92 -0.02 M0.29 146 C43.85 95.88, 87.42 45.77, 126.91 0.34 M0.29 146 C47.9 91.23, 95.51 36.46, 126.91 0.34 M0.02 152.4 C45.68 99.88, 91.33 47.36, 132.55 -0.05 M0.02 152.4 C47.67 97.59, 95.31 42.78, 132.55 -0.05 M-0.24 158.8 C45.84 105.79, 91.92 52.78, 137.54 0.31 M-0.24 158.8 C45.61 106.05, 91.46 53.31, 137.54 0.31 M0.16 164.44 C52.97 103.68, 105.79 42.92, 143.18 -0.09 M0.16 164.44 C39.83 118.8, 79.51 73.16, 143.18 -0.09 M-0.1 170.84 C38.92 125.94, 77.95 81.04, 148.17 0.27 M-0.1 170.84 C33.34 132.36, 66.79 93.88, 148.17 0.27 M0.29 176.48 C34.14 137.54, 67.98 98.61, 153.81 -0.12 M0.29 176.48 C50.78 118.4, 101.26 60.32, 153.81 -0.12 M0.03 182.88 C42.35 134.19, 84.68 85.5, 158.8 0.24 M0.03 182.88 C51.92 123.18, 103.82 63.48, 158.8 0.24 M-0.23 189.27 C45.81 136.31, 91.84 83.35, 164.44 -0.16 M-0.23 189.27 C35.34 148.35, 70.91 107.43, 164.44 -0.16 M1.47 193.41 C38.65 150.65, 75.82 107.89, 169.43 0.2 M1.47 193.41 C54.95 131.89, 108.42 70.38, 169.43 0.2 M7.12 193.01 C69.04 121.78, 130.96 50.54, 175.07 -0.19 M7.12 193.01 C65.96 125.33, 124.79 57.64, 175.07 -0.19 M12.1 193.37 C70.03 126.74, 127.95 60.1, 180.06 0.17 M12.1 193.37 C61.03 137.09, 109.96 80.8, 180.06 0.17 M17.75 192.98 C76.17 125.77, 134.59 58.56, 184.39 1.28 M17.75 192.98 C59.85 144.55, 101.95 96.12, 184.39 1.28 M22.73 193.34 C86.54 119.94, 150.34 46.55, 184.12 7.68 M22.73 193.34 C78.61 129.06, 134.48 64.79, 184.12 7.68 M28.38 192.94 C79.48 134.16, 130.57 75.38, 183.86 14.08 M28.38 192.94 C83.29 129.77, 138.21 66.59, 183.86 14.08 M33.36 193.3 C74.31 146.21, 115.25 99.11, 184.26 19.72 M33.36 193.3 C92.66 125.1, 151.95 56.89, 184.26 19.72 M39.01 192.91 C74.79 151.74, 110.58 110.58, 184 26.12 M39.01 192.91 C95.78 127.6, 152.56 62.29, 184 26.12 M43.99 193.27 C73.79 159, 103.58 124.72, 184.39 31.76 M43.99 193.27 C93.25 136.61, 142.51 79.95, 184.39 31.76 M49.64 192.88 C88.6 148.05, 127.57 103.22, 184.13 38.16 M49.64 192.88 C78.79 159.34, 107.95 125.8, 184.13 38.16 M54.62 193.24 C106.05 134.08, 157.47 74.93, 183.87 44.56 M54.62 193.24 C99.67 141.42, 144.72 89.6, 183.87 44.56 M59.61 193.6 C94.85 153.06, 130.08 112.53, 184.26 50.2 M59.61 193.6 C107.87 138.09, 156.12 82.58, 184.26 50.2 M65.25 193.2 C106.69 145.54, 148.12 97.88, 184 56.6 M65.25 193.2 C103.74 148.93, 142.22 104.66, 184 56.6 M70.24 193.56 C103.51 155.29, 136.78 117.02, 184.4 62.24 M70.24 193.56 C112.52 144.93, 154.79 96.3, 184.4 62.24 M75.88 193.17 C111.22 152.51, 146.56 111.86, 184.13 68.64 M75.88 193.17 C100.23 165.16, 124.57 137.16, 184.13 68.64 M80.87 193.53 C103.8 167.15, 126.73 140.78, 183.87 75.04 M80.87 193.53 C116.26 152.82, 151.64 112.11, 183.87 75.04 M86.51 193.13 C119 155.76, 151.49 118.38, 184.27 80.68 M86.51 193.13 C106.82 169.77, 127.13 146.41, 184.27 80.68 M91.5 193.49 C112.15 169.74, 132.8 145.98, 184.01 87.08 M91.5 193.49 C127.88 151.65, 164.25 109.81, 184.01 87.08 M97.15 193.1 C124.11 162.08, 151.07 131.06, 184.4 92.72 M97.15 193.1 C117.98 169.13, 138.82 145.16, 184.4 92.72 M102.13 193.46 C125.18 166.94, 148.23 140.42, 184.14 99.12 M102.13 193.46 C127.98 163.73, 153.82 133.99, 184.14 99.12 M107.78 193.06 C133.61 163.34, 159.45 133.61, 183.88 105.52 M107.78 193.06 C130.12 167.36, 152.46 141.66, 183.88 105.52 M112.76 193.42 C128.82 174.95, 144.88 156.48, 184.27 111.16 M112.76 193.42 C128.11 175.76, 143.46 158.11, 184.27 111.16 M118.41 193.03 C134.65 174.35, 150.89 155.66, 184.01 117.56 M118.41 193.03 C141.83 166.08, 165.26 139.13, 184.01 117.56 M123.39 193.39 C143.07 170.75, 162.76 148.11, 184.41 123.2 M123.39 193.39 C142.08 171.89, 160.77 150.39, 184.41 123.2 M129.04 192.99 C150.93 167.8, 172.83 142.61, 184.14 129.6 M129.04 192.99 C141.35 178.83, 153.66 164.66, 184.14 129.6 M134.02 193.35 C148.22 177.02, 162.42 160.68, 183.88 136 M134.02 193.35 C149.68 175.34, 165.34 157.33, 183.88 136 M139.67 192.96 C152.78 177.87, 165.9 162.79, 184.28 141.64 M139.67 192.96 C152.89 177.75, 166.12 162.53, 184.28 141.64 M144.65 193.32 C154.95 181.48, 165.24 169.64, 184.02 148.04 M144.65 193.32 C155.33 181.04, 166 168.76, 184.02 148.04 M150.3 192.93 C163.36 177.9, 176.42 162.87, 184.41 153.68 M150.3 192.93 C163.57 177.65, 176.85 162.38, 184.41 153.68 M155.28 193.29 C162.31 185.2, 169.34 177.11, 184.15 160.08 M155.28 193.29 C164.54 182.64, 173.79 172, 184.15 160.08 M160.93 192.89 C166.67 186.28, 172.42 179.67, 183.89 166.48 M160.93 192.89 C168.36 184.34, 175.8 175.78, 183.89 166.48 M165.91 193.25 C170.73 187.71, 175.55 182.16, 184.28 172.12 M165.91 193.25 C171.68 186.61, 177.46 179.97, 184.28 172.12 M170.9 193.61 C173.82 190.25, 176.75 186.88, 184.02 178.52 M170.9 193.61 C175.26 188.59, 179.62 183.58, 184.02 178.52 M176.54 193.22 C179.61 189.68, 182.69 186.15, 184.42 184.16 M176.54 193.22 C178.22 191.28, 179.91 189.35, 184.42 184.16 M181.53 193.58 C182.5 192.46, 183.46 191.35, 184.15 190.56 M181.53 193.58 C182.2 192.8, 182.87 192.03, 184.15 190.56" stroke="#ffec99" stroke-width="0.5" fill="none"></path><path d="M0 0 C43.9 0, 87.79 0, 184 0 M184 0 C184 45.09, 184 90.17, 184 193 M184 193 C113.4 193, 42.8 193, 0 193 M0 193 C0 117.67, 0 42.34, 0 0" stroke="#1e1e1e" stroke-width="1.5" fill="none" stroke-dasharray="8 9"></path></g><g transform="translate(403.2125244140625 222.39997558593768) rotate(0 56.25 9.599999999999909)"><text x="56.25" y="0" font-family="Cascadia, Segoe UI Emoji" font-size="16px" fill="#1e1e1e" text-anchor="middle" style="white-space: pre;" direction="ltr" dominant-baseline="text-before-edge">rolling hour</text></g><g stroke-linecap="round"><g transform="translate(364.4625244140698 272.39997558593586) rotate(180 57.5 5.0000000000009095)"><path d="M0 0 C0.23 2.28, 0.46 4.56, 1 10 M0 0 C0.25 2.51, 0.5 5.03, 1 10 M1 10 C30.98 10, 60.96 10, 115 10 M1 10 C34.81 10, 68.61 10, 115 10 M115 10 C115 7.37, 115 4.74, 115 1 M115 10 C115 8.15, 115 6.31, 115 1" stroke="#1e1e1e" stroke-width="1" fill="none"></path></g></g><mask></mask><g stroke-linecap="round"><g transform="translate(485.4625244140625 275.39997558593404) rotate(180 31 2.500000000001819)"><path d="M0 0 C0.35 2.09, 0.7 4.17, 1 6 M0 0 C0.27 1.61, 0.54 3.22, 1 6 M1 6 C20.6 6.32, 40.19 6.64, 62 7 M1 6 C13.72 6.21, 26.44 6.42, 62 7 M62 7 C62 3.47, 62 -0.06, 62 -2 M62 7 C62 4.63, 62 2.25, 62 -2" stroke="#1e1e1e" stroke-width="1" fill="none"></path></g></g><mask></mask><g transform="translate(401.4000244140625 254.39997558593768) rotate(0 14.0625 9.599999999999909)"><text x="14.0625" y="0" font-family="Cascadia, Segoe UI Emoji" font-size="16px" fill="#1e1e1e" text-anchor="middle" style="white-space: pre;" direction="ltr" dominant-baseline="text-before-edge">70%</text></g><g transform="translate(503.4000244140625 254.79997558593732) rotate(0 14.0625 9.599999999999909)"><text x="14.0625" y="0" font-family="Cascadia, Segoe UI Emoji" font-size="16px" fill="#1e1e1e" text-anchor="middle" style="white-space: pre;" direction="ltr" dominant-baseline="text-before-edge">30%</text></g><g transform="translate(688.387451171875 195.80000000000018) rotate(0 121.875 9.599999999999909)"><text x="121.875" y="0" font-family="Cascadia, Segoe UI Emoji" font-size="16px" fill="#1e1e1e" text-anchor="middle" style="white-space: pre;" direction="ltr" dominant-baseline="text-before-edge">rate limit: 7 request/hour</text></g><g transform="translate(40.75 122.80000000000018) rotate(0 416.015625 12)"><text x="0" y="0" font-family="Cascadia, Segoe UI Emoji" font-size="20px" fill="#1e1e1e" text-anchor="start" style="white-space: pre;" direction="ltr" dominant-baseline="text-before-edge">. formula: currWindow + (prevWindow * overlapPercentage of prev window)</text></g><g transform="translate(689.4000244140625 250.19997558593786) rotate(0 164.0625 16.800000000000182)"><text x="164.0625" y="0" font-family="Cascadia, Segoe UI Emoji" font-size="28px" fill="#1e1e1e" text-anchor="middle" style="white-space: pre;" direction="ltr" dominant-baseline="text-before-edge">3+(5*0.7) = 6.5 reqs</text></g></svg>