<svg version="1.1" xmlns="http://www.w3.org/2000/svg" viewBox="0 0 1079 661.1999999999998" width="1079" height="661.1999999999998">
  <!-- svg-source:excalidraw -->
  
  <defs>
    <style class="style-fonts">
      @font-face {
        font-family: "Virgil";
        src: url("https://excalidraw.com/Virgil.woff2");
      }
      @font-face {
        font-family: "Cascadia";
        src: url("https://excalidraw.com/Cascadia.woff2");
      }
      @font-face {
        font-family: "Assistant";
        src: url("https://excalidraw.com/Assistant-Regular.woff2");
      }
    </style>
    
  </defs>
  <rect x="0" y="0" width="1079" height="661.1999999999998" fill="#ffffff"></rect><g transform="translate(10 10) rotate(0 114.84375 16.799999999999955)"><text x="0" y="0" font-family="Cascadia, Segoe UI Emoji" font-size="28px" fill="#1e1e1e" text-anchor="start" style="white-space: pre;" direction="ltr" dominant-baseline="text-before-edge">- Token bucket</text></g><g stroke-linecap="round"><g transform="translate(498 239) rotate(0 16 61.5)"><path d="M0 0 C10.98 40.93, 19.12 76.94, 32 123 M0 0 C5.09 24.15, 12.75 50.45, 32 123" stroke="#1e1e1e" stroke-width="2" fill="none"></path></g></g><mask></mask><g stroke-linecap="round"><g transform="translate(530 362.9999998163062) rotate(0 53 0.5000000918469141)"><path d="M0 0 C41.32 -0.1, 77.41 1.83, 106 1 M0 0 C36.55 -0.13, 72.28 0.49, 106 1" stroke="#1e1e1e" stroke-width="2" fill="none"></path></g></g><mask></mask><g stroke-linecap="round"><g transform="translate(636 363.9999998163062) rotate(0 17.5 -62.499999908153086)"><path d="M0 0 C13.85 -48.07, 25.25 -94.27, 35 -125 M0 0 C15.22 -49.13, 27.87 -97.68, 35 -125" stroke="#1e1e1e" stroke-width="2" fill="none"></path></g></g><mask></mask><g transform="translate(54 52) rotate(0 205.078125 48)"><text x="0" y="0" font-family="Cascadia, Segoe UI Emoji" font-size="20px" fill="#1e1e1e" text-anchor="start" style="white-space: pre;" direction="ltr" dominant-baseline="text-before-edge">. widely used (amazon, stripe, etc)</text><text x="0" y="24" font-family="Cascadia, Segoe UI Emoji" font-size="20px" fill="#1e1e1e" text-anchor="start" style="white-space: pre;" direction="ltr" dominant-baseline="text-before-edge">. memory efficient</text><text x="0" y="48" font-family="Cascadia, Segoe UI Emoji" font-size="20px" fill="#1e1e1e" text-anchor="start" style="white-space: pre;" direction="ltr" dominant-baseline="text-before-edge">. allows burst of traffic </text><text x="0" y="72" font-family="Cascadia, Segoe UI Emoji" font-size="20px" fill="#1e1e1e" text-anchor="start" style="white-space: pre;" direction="ltr" dominant-baseline="text-before-edge">  in a short period</text></g><g stroke-linecap="round" transform="translate(549 132) rotate(0 19 21)"><path d="M4.67 6.71 C4.67 6.71, 4.67 6.71, 4.67 6.71 M4.67 6.71 C4.67 6.71, 4.67 6.71, 4.67 6.71 M1.52 22.52 C7.49 16.21, 12.35 10.23, 19.89 1.39 M1.52 22.52 C7.2 15.57, 13.08 9.02, 19.89 1.39 M4.28 31.54 C13.1 21.47, 21.36 13.58, 28.55 3.62 M4.28 31.54 C9.5 25.24, 14.64 19.22, 28.55 3.62 M9.66 37.55 C19.09 27.77, 27.69 18.28, 33.93 9.62 M9.66 37.55 C14.62 31.45, 20.23 25.54, 33.93 9.62 M16.35 42.04 C22.5 33.68, 28.46 28.05, 36.69 18.64 M16.35 42.04 C20.71 36.09, 25.91 30.9, 36.69 18.64" stroke="#ffec99" stroke-width="1" fill="none"></path><path d="M16.22 0.11 C20.02 -0.59, 26.16 1.3, 29.62 3.8 C33.09 6.31, 35.95 10.93, 37.02 15.13 C38.09 19.34, 37.56 25, 36.03 29.04 C34.5 33.08, 31.41 37.23, 27.84 39.38 C24.28 41.53, 18.57 42.88, 14.63 41.93 C10.7 40.97, 6.69 37.31, 4.23 33.64 C1.78 29.97, -0.14 24.38, -0.08 19.91 C-0.02 15.44, 1.75 10.14, 4.58 6.8 C7.42 3.46, 14.8 0.91, 16.92 -0.14 C19.03 -1.18, 17.25 0.2, 17.27 0.54 M16.16 0 C19.87 -1.12, 24.55 0.1, 28.09 2.43 C31.63 4.77, 36.06 9.64, 37.39 14 C38.72 18.37, 37.71 24.29, 36.09 28.61 C34.48 32.93, 31.21 37.87, 27.7 39.93 C24.19 41.99, 18.94 41.81, 15.03 40.96 C11.12 40.11, 6.68 38.13, 4.22 34.82 C1.77 31.52, 0.25 25.72, 0.32 21.14 C0.38 16.57, 2.15 10.79, 4.61 7.39 C7.08 4, 13.2 1.84, 15.12 0.79 C17.04 -0.26, 16 0.86, 16.15 1.09" stroke="#1e1e1e" stroke-width="2" fill="none"></path></g><g transform="translate(563.3774711574551 143.5507575950828) rotate(0 4.6875 9.599999999999909)"><text x="4.6875" y="0" font-family="Cascadia, Segoe UI Emoji" font-size="16px" fill="#1e1e1e" text-anchor="middle" style="white-space: pre;" direction="ltr" dominant-baseline="text-before-edge">t</text></g><g stroke-linecap="round" transform="translate(576 180) rotate(0 19 21)"><path d="M7.49 3.86 C7.49 3.86, 7.49 3.86, 7.49 3.86 M7.49 3.86 C7.49 3.86, 7.49 3.86, 7.49 3.86 M1.72 22.7 C7.95 15.85, 14.92 8.08, 21.4 0.06 M1.72 22.7 C10.07 13.51, 17.92 4.72, 21.4 0.06 M3.82 32.47 C9.49 26.69, 14.67 19.07, 28.1 4.55 M3.82 32.47 C12.91 22.31, 22.29 11.89, 28.1 4.55 M9.2 38.48 C16.05 30.86, 21.99 22.81, 34.13 9.8 M9.2 38.48 C19.49 26.81, 28.88 16.23, 34.13 9.8 M17.87 40.71 C25.29 31.35, 33.94 22.66, 37.55 18.06 M17.87 40.71 C25.07 33.33, 31.55 24.97, 37.55 18.06" stroke="#ffec99" stroke-width="1" fill="none"></path><path d="M19.93 -0.28 C23.78 -0.26, 29.35 3.07, 32.35 6.25 C35.35 9.44, 37.52 14.43, 37.94 18.84 C38.36 23.25, 37.19 29.03, 34.87 32.73 C32.56 36.43, 27.97 39.76, 24.04 41.03 C20.11 42.3, 14.97 42.15, 11.3 40.35 C7.64 38.56, 3.88 34.38, 2.05 30.25 C0.21 26.11, -0.62 19.95, 0.29 15.55 C1.21 11.14, 4.1 6.44, 7.53 3.82 C10.97 1.2, 18.63 0.3, 20.89 -0.17 C23.15 -0.64, 21.16 0.53, 21.1 0.99 M20.28 0.22 C24.14 0.07, 29.1 2.41, 32.07 5.35 C35.04 8.28, 37.56 13.28, 38.09 17.85 C38.62 22.41, 37.49 28.99, 35.25 32.75 C33.02 36.5, 28.56 39.2, 24.67 40.37 C20.78 41.54, 15.59 41.25, 11.93 39.77 C8.28 38.3, 4.56 35.49, 2.74 31.52 C0.92 27.54, 0.2 20.46, 1 15.94 C1.79 11.42, 4.51 7.13, 7.53 4.39 C10.55 1.64, 16.99 0.07, 19.14 -0.52 C21.28 -1.12, 20.44 0.34, 20.4 0.79" stroke="#1e1e1e" stroke-width="2" fill="none"></path></g><g transform="translate(590.3774711574551 191.5507575950828) rotate(0 4.6875 9.599999999999909)"><text x="4.6875" y="0" font-family="Cascadia, Segoe UI Emoji" font-size="16px" fill="#1e1e1e" text-anchor="middle" style="white-space: pre;" direction="ltr" dominant-baseline="text-before-edge">t</text></g><g transform="translate(655 96) rotate(0 201.5625 9.599999999999909)"><text x="0" y="0" font-family="Cascadia, Segoe UI Emoji" font-size="16px" fill="#1e1e1e" text-anchor="start" style="white-space: pre;" direction="ltr" dominant-baseline="text-before-edge">tokens are put at preset rates periodically</text></g><g stroke-linecap="round"><g transform="translate(508 273) rotate(0 76 45.5)" fill-rule="evenodd"><path d="M0 0 C0 0, 0 0, 0 0 M0 0 C0 0, 0 0, 0 0 M1.05 4.89 C2.13 3.94, 3.76 1.85, 4.99 0.36 M1.05 4.89 C2.3 3, 4.26 1.38, 4.99 0.36 M2.76 9.02 C5.84 5.97, 9.03 2.35, 9.97 0.72 M2.76 9.02 C5.49 5.36, 8.41 2.75, 9.97 0.72 M3.81 13.91 C8.98 8.75, 11.03 3.26, 14.3 1.84 M3.81 13.91 C6.68 10.94, 9.58 7.13, 14.3 1.84 M4.86 18.8 C9.17 15.83, 11.06 10.11, 19.29 2.2 M4.86 18.8 C9.93 12.17, 16.68 7.01, 19.29 2.2 M5.91 23.69 C11.64 17.58, 15.42 11.69, 24.28 2.56 M5.91 23.69 C10.5 17.32, 15.83 13.12, 24.28 2.56 M7.62 27.82 C14.43 22.11, 16.54 17.97, 29.27 2.92 M7.62 27.82 C15.23 19.21, 21.63 11.85, 29.27 2.92 M8.67 32.71 C15.1 24.98, 20.58 21.71, 33.6 4.03 M8.67 32.71 C17.06 21.3, 27.04 12.46, 33.6 4.03 M9.72 37.6 C16.96 28.22, 25.99 17.63, 38.58 4.39 M9.72 37.6 C21.44 24.38, 32.27 11.45, 38.58 4.39 M10.77 42.49 C24.35 29.03, 33.36 13.31, 43.57 4.75 M10.77 42.49 C16.72 34.89, 23.92 27.32, 43.57 4.75 M12.47 46.62 C25.57 32.17, 38.7 14.22, 48.56 5.11 M12.47 46.62 C23.14 34.03, 33.73 21.95, 48.56 5.11 M13.53 51.51 C23.51 39.09, 33.25 28.15, 53.55 5.47 M13.53 51.51 C23.36 39.96, 32.83 28.49, 53.55 5.47 M14.58 56.4 C28.29 39.37, 46.03 24.1, 57.88 6.59 M14.58 56.4 C29.19 39.52, 43.76 23.87, 57.88 6.59 M15.63 61.28 C28.31 47.25, 38.84 31.34, 62.86 6.95 M15.63 61.28 C34.47 40.45, 52.77 19.64, 62.86 6.95 M17.33 65.42 C37.2 44.75, 53.24 21.61, 67.85 7.31 M17.33 65.42 C31.9 49.54, 44.88 34.08, 67.85 7.31 M18.38 70.31 C36.63 52.28, 49.45 33.74, 72.84 7.67 M18.38 70.31 C38.54 44.95, 61.08 21.46, 72.84 7.67 M19.43 75.19 C38.3 54.31, 57.38 32.02, 75.86 10.29 M19.43 75.19 C33.85 59.18, 48.5 41.19, 75.86 10.29 M21.14 79.33 C41.01 56.69, 59.98 33.24, 81.5 9.9 M21.14 79.33 C34.76 63.07, 48.05 46.36, 81.5 9.9 M22.19 84.22 C36.81 67.95, 50.29 50.2, 87.14 9.5 M22.19 84.22 C47.16 55.6, 72.15 27.02, 87.14 9.5 M23.9 88.35 C51.17 58.83, 78.18 27.62, 93.44 8.35 M23.9 88.35 C49.58 60.7, 73.69 31.83, 93.44 8.35 M28.89 88.71 C52.92 58.82, 79.68 28.43, 99.08 7.96 M28.89 88.71 C49.87 66.19, 68.99 43.03, 99.08 7.96 M33.87 89.07 C61.01 59.06, 88.3 25.21, 104.73 7.56 M33.87 89.07 C61.93 56.52, 89.23 22.95, 104.73 7.56 M39.52 88.68 C64.83 60.95, 88.76 29.16, 110.37 7.17 M39.52 88.68 C60.13 62.65, 82.16 37.65, 110.37 7.17 M44.5 89.04 C71.34 58.63, 99.14 28.47, 116.67 6.02 M44.5 89.04 C66.33 63.96, 86.61 39.76, 116.67 6.02 M49.49 89.4 C76.04 62.41, 99.91 33.52, 122.31 5.62 M49.49 89.4 C75.92 59.31, 102.18 30.56, 122.31 5.62 M54.48 89.76 C77.84 64.25, 102.38 33.57, 127.96 5.23 M54.48 89.76 C84.56 57.74, 114.04 23.97, 127.96 5.23 M60.12 89.36 C83.39 60.47, 110.3 31.76, 133.6 4.83 M60.12 89.36 C81.22 64.29, 100.75 41.26, 133.6 4.83 M65.11 89.72 C84.2 65.85, 104.41 45.11, 139.9 3.69 M65.11 89.72 C87.3 65.01, 106.74 41.94, 139.9 3.69 M70.09 90.08 C90.71 66.08, 113.23 39.34, 145.54 3.29 M70.09 90.08 C90 65.28, 110.99 41.37, 145.54 3.29 M75.08 90.44 C90.66 73.26, 107.38 52.21, 153.15 0.63 M75.08 90.44 C107.38 54.77, 137.64 18.89, 153.15 0.63 M80.72 90.05 C99.06 69.98, 117.95 48.14, 150.27 10.05 M80.72 90.05 C98.26 69.64, 116.94 48.63, 150.27 10.05 M85.71 90.41 C110.05 60.2, 136.75 31.83, 148.04 18.71 M85.71 90.41 C110.78 61.91, 134.22 32.41, 148.04 18.71 M90.7 90.77 C112.29 66.01, 134.59 41.77, 145.81 27.37 M90.7 90.77 C108.05 73.34, 123.69 54.6, 145.81 27.37 M96.34 90.37 C109.76 76.78, 119.41 60.96, 142.92 36.79 M96.34 90.37 C106.13 78.59, 114.84 69.22, 142.92 36.79 M101.33 90.73 C115.05 73.82, 127.85 56.17, 140.69 45.45 M101.33 90.73 C117.11 73.35, 132.49 54.01, 140.69 45.45 M106.32 91.09 C112.96 83.51, 121.68 70.02, 138.46 54.11 M106.32 91.09 C118.82 77.62, 129.91 64.3, 138.46 54.11 M111.3 91.45 C120.23 81.2, 127.74 69.68, 135.58 63.53 M111.3 91.45 C119.52 83.32, 125.78 74.69, 135.58 63.53 M116.95 91.06 C120.7 85.72, 123.46 80.38, 133.35 72.19 M116.95 91.06 C122.08 84.94, 126.81 80.84, 133.35 72.19 M121.93 91.42 C124.2 87.59, 127.05 86.3, 131.12 80.85 M121.93 91.42 C125.55 88.47, 128.58 84.8, 131.12 80.85" stroke="#ffec99" stroke-width="0.5" fill="none"></path><path d="M0 0 C24.52 2.53, 48.79 6.5, 73 8 M0 0 C15.46 2.14, 31.51 3.55, 73 8 M73 8 C95.67 5.77, 115.38 5.13, 152 0 M73 8 C97.49 6.22, 122.21 4.16, 152 0 M152 0 C146.54 19.11, 142.33 38.5, 127 91 M152 0 C141.79 31.72, 134.67 63.89, 127 91 M127 91 C103.78 92.78, 79.21 90.75, 23 88 M127 91 C104.34 89.43, 80.98 89.17, 23 88 M23 88 C16.3 65.13, 11.63 41.89, 0 0 M23 88 C17.63 67.68, 13.28 48.61, 0 0 M0 0 C0 0, 0 0, 0 0 M0 0 C0 0, 0 0, 0 0" stroke="#f08c00" stroke-width="1" fill="none"></path></g></g><mask></mask><g transform="translate(694 262.5999999999999) rotate(0 187.5 48)"><text x="0" y="0" font-family="Cascadia, Segoe UI Emoji" font-size="20px" fill="#1e1e1e" text-anchor="start" style="white-space: pre;" direction="ltr" dominant-baseline="text-before-edge">params:</text><text x="0" y="24" font-family="Cascadia, Segoe UI Emoji" font-size="20px" fill="#1e1e1e" text-anchor="start" style="white-space: pre;" direction="ltr" dominant-baseline="text-before-edge"></text><text x="0" y="48" font-family="Cascadia, Segoe UI Emoji" font-size="20px" fill="#1e1e1e" text-anchor="start" style="white-space: pre;" direction="ltr" dominant-baseline="text-before-edge">bucket size: 500 tokens</text><text x="0" y="72" font-family="Cascadia, Segoe UI Emoji" font-size="20px" fill="#1e1e1e" text-anchor="start" style="white-space: pre;" direction="ltr" dominant-baseline="text-before-edge">refill rate: 3 tokens per second</text></g><g stroke-linecap="round"><g transform="translate(106 468) rotate(0 182 0)"><path d="M0 0 C108.3 -1.23, 216.03 -0.38, 364 0 M0 0 C144.25 -1.41, 288.56 -1.51, 364 0" stroke="#1e1e1e" stroke-width="1" fill="none"></path></g><g transform="translate(106 468) rotate(0 182 0)"><path d="M335.7 9.95 C344.91 7.31, 353.17 5.72, 364 0 M335.7 9.95 C347.24 5.74, 358.77 1.64, 364 0" stroke="#1e1e1e" stroke-width="1" fill="none"></path></g><g transform="translate(106 468) rotate(0 182 0)"><path d="M335.92 -10.57 C344.95 -7.13, 353.14 -2.64, 364 0 M335.92 -10.57 C347.18 -6.66, 358.63 -2.63, 364 0" stroke="#1e1e1e" stroke-width="1" fill="none"></path></g></g><mask></mask><g transform="translate(222 440) rotate(0 41.015625 12)"><text x="0" y="0" font-family="Cascadia, Segoe UI Emoji" font-size="20px" fill="#1e1e1e" text-anchor="start" style="white-space: pre;" direction="ltr" dominant-baseline="text-before-edge">request</text></g><g transform="translate(704 126.40000000000009) rotate(0 93.75 9.599999999999909)"><text x="0" y="0" font-family="Cascadia, Segoe UI Emoji" font-size="16px" fill="#1e1e1e" text-anchor="start" style="white-space: pre;" direction="ltr" dominant-baseline="text-before-edge">(if full, overflows)</text></g><g transform="translate(29 351.5999999999999) rotate(0 181.640625 12)"><text x="0" y="0" font-family="Cascadia, Segoe UI Emoji" font-size="20px" fill="#1e1e1e" text-anchor="start" style="white-space: pre;" direction="ltr" dominant-baseline="text-before-edge">Each request consumes one token</text></g><g stroke-linecap="round" transform="translate(581 87) rotate(0 19 21)"><path d="M7.51 3.88 C7.51 3.88, 7.51 3.88, 7.51 3.88 M7.51 3.88 C7.51 3.88, 7.51 3.88, 7.51 3.88 M1.74 22.71 C8.01 15.68, 13.15 9.58, 20.76 0.82 M1.74 22.71 C5.58 18.85, 9.74 14.02, 20.76 0.82 M3.84 32.49 C10.09 24.08, 17.5 16.1, 28.77 3.81 M3.84 32.49 C11.8 24.32, 19.4 15.03, 28.77 3.81 M9.22 38.49 C16.63 28.92, 25.17 19.87, 34.15 9.81 M9.22 38.49 C14.47 32.35, 19.67 26.76, 34.15 9.81 M17.88 40.72 C24.01 33.41, 31.48 26.01, 37.56 18.08 M17.88 40.72 C24.24 33.06, 31.06 25.42, 37.56 18.08" stroke="#ffec99" stroke-width="1" fill="none"></path><path d="M20.61 0.15 C24.44 0.07, 29.13 2.33, 31.93 5.44 C34.74 8.56, 36.9 14.39, 37.44 18.87 C37.98 23.34, 37.3 28.58, 35.16 32.29 C33.02 35.99, 28.63 39.83, 24.61 41.08 C20.6 42.34, 14.82 41.55, 11.09 39.81 C7.36 38.07, 4.06 34.65, 2.24 30.66 C0.42 26.67, -0.67 20.29, 0.17 15.88 C1 11.46, 3.88 6.77, 7.26 4.17 C10.64 1.56, 18.06 0.88, 20.47 0.24 C22.88 -0.4, 21.59 0.07, 21.69 0.34 M20.22 0.37 C24.31 0.01, 29.31 1.79, 32.25 4.67 C35.18 7.56, 37.33 12.99, 37.82 17.66 C38.3 22.32, 37.34 28.78, 35.17 32.65 C32.99 36.53, 28.52 39.6, 24.79 40.92 C21.05 42.24, 16.57 42.24, 12.76 40.57 C8.95 38.9, 3.97 34.89, 1.9 30.9 C-0.17 26.91, -0.47 21.08, 0.33 16.65 C1.13 12.21, 3.48 7.02, 6.71 4.29 C9.95 1.56, 17.62 0.93, 19.73 0.28 C21.84 -0.37, 19.3 0.19, 19.37 0.4" stroke="#1e1e1e" stroke-width="2" fill="none"></path></g><g transform="translate(595.3774711574551 98.55075759508281) rotate(0 4.6875 9.599999999999909)"><text x="4.6875" y="0" font-family="Cascadia, Segoe UI Emoji" font-size="16px" fill="#1e1e1e" text-anchor="middle" style="white-space: pre;" direction="ltr" dominant-baseline="text-before-edge">t</text></g><g stroke-linecap="round"><g transform="translate(589 228) rotate(0 0 20.5)"><path d="M0 0 C-0.04 15.8, -0.48 29.81, 0 41 M0 0 C0.1 12.08, 0.52 24.32, 0 41" stroke="#1e1e1e" stroke-width="1" fill="none"></path></g><g transform="translate(589 228) rotate(0 0 20.5)"><path d="M-6.67 21.61 C-4.4 29.58, -2.42 35.77, 0 41 M-6.67 21.61 C-4.71 27.34, -2.34 33.25, 0 41" stroke="#1e1e1e" stroke-width="1" fill="none"></path></g><g transform="translate(589 228) rotate(0 0 20.5)"><path d="M7.35 21.86 C4.55 29.77, 1.45 35.88, 0 41 M7.35 21.86 C5.2 27.58, 3.47 33.41, 0 41" stroke="#1e1e1e" stroke-width="1" fill="none"></path></g></g><mask></mask><g transform="translate(552 49) rotate(0 46.875 12)"><text x="0" y="0" font-family="Cascadia, Segoe UI Emoji" font-size="20px" fill="#1e1e1e" text-anchor="start" style="white-space: pre;" direction="ltr" dominant-baseline="text-before-edge">refiller</text></g><g stroke-linecap="round" transform="translate(503 392) rotate(0 77.5 73.5)"><path d="M78 0 C102.52 22.99, 131.87 50.24, 155 74 M78 0 C99.31 20.39, 120.4 41.59, 155 74 M155 74 C128.73 97.28, 103.84 124.29, 78 147 M155 74 C135.77 91.98, 116.97 108.95, 78 147 M78 147 C54.15 125.92, 32.94 103.79, 0 74 M78 147 C49.72 119.68, 22.44 95.34, 0 74 M0 74 C29.17 46.35, 61.51 15.42, 78 0 M0 74 C18.62 55.73, 38.36 38.13, 78 0" stroke="#1e1e1e" stroke-width="1" fill="none"></path></g><g transform="translate(547.9375 446.5500000000002) rotate(0 32.8125 19.200000000000045)"><text x="32.8125" y="0" font-family="Cascadia, Segoe UI Emoji" font-size="16px" fill="#1e1e1e" text-anchor="middle" style="white-space: pre;" direction="ltr" dominant-baseline="text-before-edge">enough </text><text x="32.8125" y="19.2" font-family="Cascadia, Segoe UI Emoji" font-size="16px" fill="#1e1e1e" text-anchor="middle" style="white-space: pre;" direction="ltr" dominant-baseline="text-before-edge">tokens?</text></g><g stroke-linecap="round"><g transform="translate(681 465) rotate(0 130.5 -0.5)"><path d="M0 0 C61.74 1.11, 119.37 0.63, 261 -1 M0 0 C60.5 -1.1, 120.75 -0.36, 261 -1" stroke="#1e1e1e" stroke-width="1" fill="none"></path></g><g transform="translate(681 465) rotate(0 130.5 -0.5)"><path d="M232.84 9.34 C241.11 7.28, 244.17 4.57, 261 -1 M232.84 9.34 C239.73 6.33, 246.27 5.18, 261 -1" stroke="#1e1e1e" stroke-width="1" fill="none"></path></g><g transform="translate(681 465) rotate(0 130.5 -0.5)"><path d="M232.78 -11.18 C240.94 -8.49, 244.01 -6.46, 261 -1 M232.78 -11.18 C239.63 -9.45, 246.19 -5.88, 261 -1" stroke="#1e1e1e" stroke-width="1" fill="none"></path></g></g><mask></mask><g transform="translate(706 439) rotate(0 93.75 9.599999999999909)"><text x="0" y="0" font-family="Cascadia, Segoe UI Emoji" font-size="16px" fill="#1e1e1e" text-anchor="start" style="white-space: pre;" direction="ltr" dominant-baseline="text-before-edge">yes, forward request</text></g><g stroke-linecap="round"><g transform="translate(582 558) rotate(0 -0.09572952275402713 30)"><path d="M0 0 C-0.8 15.32, 0.52 33.96, -0.19 60 M0 0 C-0.72 14.72, -0.62 30.66, -0.19 60" stroke="#1e1e1e" stroke-width="1" fill="none"></path></g><g transform="translate(582 558) rotate(0 -0.09572952275402713 30)"><path d="M-10.8 31.94 C-8.78 38.51, -4.47 48.31, -0.19 60 M-10.8 31.94 C-8.45 38.36, -5.58 46.09, -0.19 60" stroke="#1e1e1e" stroke-width="1" fill="none"></path></g><g transform="translate(582 558) rotate(0 -0.09572952275402713 30)"><path d="M9.72 31.68 C6.06 38.17, 4.7 48.04, -0.19 60 M9.72 31.68 C6.79 38.35, 4.39 46.15, -0.19 60" stroke="#1e1e1e" stroke-width="1" fill="none"></path></g></g><mask></mask><g transform="translate(544 632) rotate(0 79.6875 9.599999999999909)"><text x="0" y="0" font-family="Cascadia, Segoe UI Emoji" font-size="16px" fill="#1e1e1e" text-anchor="start" style="white-space: pre;" direction="ltr" dominant-baseline="text-before-edge">nop, drop request</text></g></svg>
